<svg width="9" height="10" viewBox="0 0 9 10" fill="none" xmlns="http://www.w3.org/2000/svg">
<path d="M0.617378 10V9.01299L1.97561 8.88312V8.83117C1.51829 8.57143 1.14329 8.25541 0.85061 7.88312C0.557927 7.50216 0.342988 7.08225 0.205793 6.62338C0.0685975 6.1645 0 5.67532 0 5.15584C0 4.30736 0.17378 3.56277 0.521341 2.92208C0.868902 2.27273 1.37652 1.76623 2.04421 1.4026C2.72104 1.03896 3.54421 0.857143 4.51372 0.857143C5.47408 0.857143 6.28811 1.04762 6.95579 1.42857C7.62347 1.80087 8.1311 2.33333 8.47866 3.02597C8.82622 3.70996 9 4.52381 9 5.46753H7.47713C7.47713 4.7316 7.37652 4.09957 7.1753 3.57143C6.97408 3.03463 6.65396 2.62771 6.21494 2.35065C5.78506 2.06493 5.21799 1.92208 4.51372 1.92208C3.8186 1.92208 3.25152 2.06061 2.8125 2.33766C2.37348 2.60606 2.04878 2.99134 1.83841 3.49351C1.62805 3.98701 1.52287 4.58009 1.52287 5.27273C1.52287 5.97403 1.65549 6.59307 1.92073 7.12987C2.18598 7.66667 2.56555 8.08658 3.05945 8.38961C3.55335 8.68398 4.12957 8.83117 4.78811 8.83117H8.38262V10H0.617378ZM3.07317 5.46753V0H3.99238V5.46753H3.07317ZM5.02134 5.46753V0H5.94055V5.46753H5.02134Z" fill="#3A3A3A"/>
</svg>
