<svg width="19" height="19" viewBox="0 0 19 19" fill="none" xmlns="http://www.w3.org/2000/svg">
<path d="M17.4167 9.08333C17.4167 13.6857 13.6857 17.4167 9.08333 17.4167M17.4167 9.08333C17.4167 4.48096 13.6857 0.75 9.08333 0.75M17.4167 9.08333H0.75M9.08333 17.4167C4.48096 17.4167 0.75 13.6857 0.75 9.08333M9.08333 17.4167C11.1677 15.1347 12.3523 12.1733 12.4167 9.08333C12.3523 5.99336 11.1677 3.03196 9.08333 0.75M9.08333 17.4167C6.99893 15.1347 5.81437 12.1733 5.75 9.08333C5.81437 5.99336 6.99893 3.03196 9.08333 0.75M0.75 9.08333C0.75 4.48096 4.48096 0.75 9.08333 0.75" stroke="#172021" stroke-width="1.5" stroke-linecap="round" stroke-linejoin="round"/>
</svg>
