<svg width="20" height="20" viewBox="0 0 20 20" fill="none" xmlns="http://www.w3.org/2000/svg">
<path fill-rule="evenodd" clip-rule="evenodd" d="M2.70833 8.45276C2.70833 4.37025 5.9625 1.04169 9.99999 1.04169C14.0375 1.04169 17.2917 4.37025 17.2917 8.45276C17.2917 10.4237 16.73 12.5399 15.737 14.3682C14.7453 16.1943 13.2964 17.781 11.4838 18.6283C10.5421 19.0684 9.45786 19.0684 8.51624 18.6283C6.70364 17.781 5.25468 16.1943 4.26296 14.3682C3.27002 12.5399 2.70833 10.4237 2.70833 8.45276ZM9.99999 2.29169C6.67369 2.29169 3.95833 5.03959 3.95833 8.45276C3.95833 10.2003 4.46052 12.1129 5.36141 13.7717C6.26353 15.4327 7.53835 16.7914 9.04553 17.4959C9.6517 17.7792 10.3483 17.7792 10.9545 17.4959C12.4616 16.7914 13.7365 15.4327 14.6386 13.7717C15.5395 12.1129 16.0417 10.2003 16.0417 8.45276C16.0417 5.03959 13.3263 2.29169 9.99999 2.29169ZM9.99999 6.45835C8.96446 6.45835 8.12499 7.29782 8.12499 8.33335C8.12499 9.36889 8.96446 10.2084 9.99999 10.2084C11.0355 10.2084 11.875 9.36889 11.875 8.33335C11.875 7.29782 11.0355 6.45835 9.99999 6.45835ZM6.87499 8.33335C6.87499 6.60746 8.27411 5.20835 9.99999 5.20835C11.7259 5.20835 13.125 6.60746 13.125 8.33335C13.125 10.0592 11.7259 11.4584 9.99999 11.4584C8.27411 11.4584 6.87499 10.0592 6.87499 8.33335Z" fill="#7B7B7B"/>
</svg>
