<svg width="18" height="18" viewBox="0 0 18 18" fill="none" xmlns="http://www.w3.org/2000/svg">
<path d="M15.2083 13.5417C15.2083 14.0019 14.8352 14.375 14.375 14.375C13.9148 14.375 13.5417 14.0019 13.5417 13.5417C13.5417 13.0814 13.9148 12.7083 14.375 12.7083C14.8352 12.7083 15.2083 13.0814 15.2083 13.5417Z" fill="#7B7B7B"/>
<path d="M4.375 3.54167C4.375 4.0019 4.0019 4.375 3.54167 4.375C3.08143 4.375 2.70833 4.0019 2.70833 3.54167C2.70833 3.08143 3.08143 2.70833 3.54167 2.70833C4.0019 2.70833 4.375 3.08143 4.375 3.54167Z" fill="#7B7B7B"/>
<path fill-rule="evenodd" clip-rule="evenodd" d="M0 3.33943C0 1.45358 1.62872 0 3.54167 0C5.45462 0 7.08333 1.45358 7.08333 3.33943C7.08333 5.02799 6.04516 7.0209 4.32063 7.75787C3.82518 7.9696 3.25816 7.9696 2.7627 7.75787C1.03817 7.0209 0 5.02799 0 3.33943ZM3.54167 1.25C2.23296 1.25 1.25 2.22701 1.25 3.33943C1.25 4.62565 2.07363 6.10404 3.25391 6.60843C3.43562 6.68608 3.64772 6.68608 3.82942 6.60843C5.00971 6.10404 5.83333 4.62565 5.83333 3.33943C5.83333 2.22701 4.85038 1.25 3.54167 1.25ZM8.33333 3.125C8.33333 2.77982 8.61316 2.5 8.95833 2.5H12.4016C14.6943 2.5 15.5662 5.49417 13.6319 6.72506L4.95586 12.2462C4.07664 12.8057 4.47297 14.1667 5.5151 14.1667H7.44945L7.26639 13.9836C7.02231 13.7395 7.02231 13.3438 7.26639 13.0997C7.51047 12.8556 7.9062 12.8556 8.15027 13.0997L9.40027 14.3497C9.64435 14.5938 9.64435 14.9895 9.40027 15.2336L8.15027 16.4836C7.9062 16.7277 7.51047 16.7277 7.26639 16.4836C7.02231 16.2395 7.02231 15.8438 7.26639 15.5997L7.44945 15.4167H5.5151C3.2224 15.4167 2.35051 12.4225 4.28476 11.1916L12.9608 5.67048C13.84 5.11098 13.4437 3.75 12.4016 3.75H8.95833C8.61316 3.75 8.33333 3.47018 8.33333 3.125ZM10.8333 13.3394C10.8333 11.4536 12.462 10 14.375 10C16.288 10 17.9167 11.4536 17.9167 13.3394C17.9167 15.028 16.8785 17.0209 15.154 17.7579C14.6585 17.9696 14.0915 17.9696 13.596 17.7579C11.8715 17.0209 10.8333 15.028 10.8333 13.3394ZM14.375 11.25C13.0663 11.25 12.0833 12.227 12.0833 13.3394C12.0833 14.6257 12.907 16.104 14.0872 16.6084C14.2689 16.6861 14.4811 16.6861 14.6628 16.6084C15.843 16.104 16.6667 14.6257 16.6667 13.3394C16.6667 12.227 15.6837 11.25 14.375 11.25Z" fill="#7B7B7B"/>
</svg>
