<svg width="6" height="10" viewBox="0 0 6 10" fill="none" xmlns="http://www.w3.org/2000/svg">
<path d="M2.50535 8.75153C2.01713 8.74337 1.5546 8.70257 1.11777 8.62913C0.680942 8.55569 0.316917 8.45369 0.0256959 8.32313V7.13586C0.342612 7.27458 0.728051 7.3929 1.18201 7.49082C1.63597 7.58874 2.07709 7.64586 2.50535 7.66218V5.36108C1.94861 5.2142 1.4818 5.04284 1.10493 4.847C0.736617 4.65116 0.458244 4.41044 0.269807 4.12485C0.0899357 3.83925 0 3.49245 0 3.08446C0 2.6683 0.102784 2.31334 0.308351 2.01958C0.513919 1.72583 0.805139 1.49735 1.18201 1.33415C1.55889 1.16279 2 1.06079 2.50535 1.02815V0H3.39186V1.01591C3.85439 1.03223 4.27837 1.08527 4.66381 1.17503C5.04925 1.26479 5.40043 1.37087 5.71735 1.49327L5.33191 2.53366C5.04925 2.41942 4.7409 2.32558 4.40685 2.25214C4.07281 2.17054 3.73448 2.1175 3.39186 2.09302V4.38189C3.96574 4.53692 4.4454 4.7042 4.83084 4.88372C5.21627 5.06324 5.50749 5.28764 5.7045 5.55692C5.9015 5.81803 6 6.15667 6 6.57283C6 7.16034 5.77302 7.64178 5.31906 8.01713C4.87366 8.39249 4.23126 8.62097 3.39186 8.70257V10H2.50535V8.75153ZM3.39186 7.60098C3.85439 7.56018 4.18844 7.45818 4.394 7.29498C4.60814 7.13178 4.7152 6.9237 4.7152 6.67075C4.7152 6.48307 4.67666 6.32803 4.59957 6.20563C4.52248 6.08323 4.38544 5.97715 4.18844 5.88739C4 5.79763 3.73448 5.70787 3.39186 5.61811V7.60098ZM2.50535 2.1175C2.2227 2.13382 1.99143 2.18278 1.81156 2.26438C1.63169 2.33782 1.49465 2.43982 1.40043 2.57038C1.31478 2.69278 1.27195 2.83558 1.27195 2.99878C1.27195 3.19461 1.31049 3.36189 1.38758 3.50061C1.46467 3.63117 1.59315 3.74541 1.77302 3.84333C1.95289 3.93309 2.197 4.01877 2.50535 4.10037V2.1175Z" fill="white"/>
</svg>
