<svg width="32" height="32" viewBox="0 0 24 24" fill="none" xmlns="http://www.w3.org/2000/svg">
  <path d="M10.9668 2.05714C16.568 2.05714 21.1849 6.2582 21.8486 11.6821L15.3154 10.9068C13.7347 10.7191 12.416 9.61158 11.957 8.08742L10.9668 4.80031L9.86328 8.46632C9.46455 9.79111 8.41004 10.8163 7.07422 11.1763L2.74219 12.3433L6.93652 13.4722C8.34631 13.852 9.43693 14.9705 9.78223 16.3892L10.9668 21.2573L12.0557 16.7876C12.4506 15.1649 13.8122 13.9581 15.4707 13.7612L21.9336 12.9937C21.9336 13.0053 21.9346 13.0172 21.9346 13.0288C21.9344 19.0881 17.0238 23.9995 10.9668 23.9995C4.91005 23.9993 0.000135498 19.0879 0 13.0288C0 6.96962 4.90996 2.05738 10.9668 2.05714Z" fill="#172021"/>
</svg>
