<svg width="106" height="24" viewBox="0 0 106 24" fill="none" xmlns="http://www.w3.org/2000/svg">
<path d="M40.2216 13.0752C40.1082 13.9494 39.9321 14.6949 39.6854 15.3105C39.2783 16.3619 38.5718 17.1153 37.5663 17.5693C36.5605 17.9996 35.147 18.2139 33.327 18.2139C32.2496 18.2139 31.3876 18.1067 30.7411 17.8916C30.1354 17.6677 29.6571 17.3894 29.3036 17.0605V21.9434H21.9344C23.5089 19.3612 24.418 16.3294 24.4286 13.0859L29.4872 13.082C29.4977 13.1207 29.508 13.1582 29.5194 13.1943C29.663 13.6242 29.8666 13.9235 30.1298 14.0908C30.3932 14.2342 30.7174 14.3066 31.1005 14.3066C31.9862 14.3066 32.4894 13.983 32.6093 13.3379C32.6243 13.2567 32.6381 13.1707 32.6512 13.0801L40.2216 13.0752ZM71.3866 13.0547C71.291 13.6505 71.1521 14.1871 70.9657 14.6641C70.6065 15.6201 70.0435 16.3731 69.2772 16.9229C68.5348 17.4487 67.5888 17.82 66.4393 18.0352C65.29 18.2502 63.9371 18.3574 62.3807 18.3574C60.7764 18.3574 59.3871 18.2502 58.2137 18.0352C57.0643 17.82 56.106 17.4487 55.3397 16.9229C54.5735 16.3731 53.9982 15.6201 53.6151 14.6641C53.4415 14.1902 53.3111 13.6576 53.2216 13.0664L60.6825 13.0615C60.6967 13.1459 60.7119 13.226 60.7284 13.3018C60.8721 13.8515 61.0753 14.2463 61.3387 14.4854C61.6261 14.7004 61.9737 14.8076 62.3807 14.8076C62.8116 14.8075 63.1472 14.7004 63.3866 14.4854C63.626 14.2463 63.7928 13.8514 63.8885 13.3018C63.9052 13.2255 63.9192 13.1446 63.9335 13.0596L71.3866 13.0547ZM49.8202 13.3018C49.8202 14.1145 49.9279 14.6888 50.1434 15.0234C50.3829 15.3339 50.802 15.4892 51.4003 15.4893C51.6636 15.4893 51.8913 15.4648 52.0829 15.417C52.2983 15.3453 52.4304 15.2983 52.4784 15.2744V17.8555C52.2869 17.8794 51.9157 17.9631 51.3651 18.1064C50.8143 18.226 49.8317 18.2861 48.4188 18.2861C46.3117 18.2861 44.7912 17.9749 43.8573 17.3535C42.9234 16.732 42.4559 15.6445 42.4559 14.0908V13.0742L49.8202 13.0693V13.3018ZM81.9823 13.0479C82.0041 13.7934 82.0858 14.3685 82.2274 14.7725C82.3952 15.2264 82.9226 15.4531 83.8085 15.4531C84.0001 15.4531 84.2876 15.4296 84.6708 15.3818C85.0778 15.334 85.3655 15.2861 85.5331 15.2383V17.8193C85.3415 17.8432 84.8141 17.9269 83.952 18.0703C83.1139 18.1898 82.0601 18.25 80.7909 18.25C79.1386 18.25 77.8571 18.0949 76.9471 17.7842C76.0372 17.4734 75.403 16.947 75.0438 16.2061C74.6846 15.4651 74.5048 14.449 74.5048 13.1582V13.0527L81.9823 13.0479ZM106 13.2656C106 14.7954 105.545 15.9074 104.635 16.6006C103.749 17.2938 102.503 17.7355 100.898 17.9268C99.2939 18.118 97.4138 18.2139 95.2587 18.2139C94.5643 18.2139 93.87 18.2016 93.1757 18.1777C92.5052 18.1538 91.8466 18.1181 91.2001 18.0703C90.5774 17.9986 90.0023 17.9149 89.4755 17.8193C88.9009 17.6998 88.422 17.5447 88.0389 17.3535C87.6797 17.1623 87.4044 16.7675 87.2128 16.1699C87.0213 15.5723 86.9257 14.6284 86.9257 13.3379C87.8355 13.5769 88.7097 13.78 89.5477 13.9473C90.3858 14.1146 91.1999 14.234 91.9901 14.3057C92.7804 14.3774 93.5587 14.4131 94.3251 14.4131C94.5646 14.4131 94.8999 14.4253 95.3309 14.4492C95.7859 14.4492 96.2412 14.437 96.6962 14.4131C97.1748 14.3653 97.5818 14.2702 97.9169 14.127C98.2521 13.9836 98.4197 13.7682 98.4198 13.4814C98.4198 13.2816 98.3669 13.1339 98.2635 13.0371L105.995 13.0312C105.997 13.1081 106 13.1862 106 13.2656ZM97.0194 3.58496C97.7857 3.58496 98.6597 3.59719 99.6415 3.62109C100.647 3.62109 101.473 3.65681 102.12 3.72852C103.054 3.82413 103.772 3.96796 104.275 4.15918C104.778 4.3265 105.126 4.62541 105.317 5.05566C105.533 5.4859 105.64 6.14316 105.641 7.02734V8.24609C105.545 8.00727 105.173 7.82845 104.527 7.70898C103.881 7.58947 103.078 7.51707 102.12 7.49316C101.186 7.44536 100.192 7.42188 99.1385 7.42188H96.2645C95.9055 7.42189 95.5943 7.44539 95.3309 7.49316C95.0915 7.51707 94.8994 7.58947 94.7557 7.70898C94.6363 7.82843 94.5761 8.0075 94.576 8.24609C94.576 8.43732 94.6126 8.58115 94.6844 8.67676C94.7802 8.74842 94.9002 8.79642 95.0438 8.82031C95.1874 8.84418 95.3431 8.85645 95.5106 8.85645H100.719C101.796 8.85645 102.731 8.95135 103.521 9.14258C104.311 9.33383 104.922 9.74091 105.353 10.3623C105.748 10.9313 105.96 11.7907 105.993 12.9404L90.163 12.7002C90.1375 12.697 90.112 12.6957 90.0868 12.6924C89.1768 12.5729 88.4696 12.226 87.9667 11.6523C87.4879 11.0787 87.2489 10.0988 87.2489 8.71289C87.2489 7.20701 87.632 6.09502 88.3983 5.37793C89.1646 4.63708 90.2663 4.15944 91.703 3.94434C93.1638 3.70532 94.936 3.58496 97.0194 3.58496ZM81.9403 3.80078H85.5331V7.60156H81.9764V12.5762L74.5048 12.4629V7.60156H72.8524V3.80078H74.5048V2.50977C74.5048 1.74489 74.5525 1.18276 74.6483 0.824219C74.7681 0.465876 75.008 0.239136 75.3671 0.143555C75.7263 0.0479687 76.2893 0 77.0555 0H81.9403V3.80078ZM62.3807 3.58496C63.9611 3.58498 65.3261 3.6931 66.4755 3.9082C67.6249 4.12333 68.571 4.50591 69.3134 5.05566C70.0556 5.58152 70.6065 6.33453 70.9657 7.31445C71.3488 8.27054 71.5399 9.4898 71.5399 10.9717C71.5399 11.4831 71.5142 11.9644 71.4686 12.416L64.0233 12.3037C64.0531 11.9161 64.0682 11.4722 64.0682 10.9717C64.0682 9.96776 64.0083 9.19039 63.8885 8.64062C63.7928 8.06747 63.6258 7.67317 63.3866 7.45801C63.1472 7.24295 62.8116 7.13483 62.3807 7.13477C61.9736 7.13477 61.6261 7.24288 61.3387 7.45801C61.0754 7.6731 60.8721 8.0672 60.7284 8.64062C60.6087 9.19039 60.5487 9.96776 60.5487 10.9717C60.5487 11.4496 60.5635 11.876 60.5907 12.251L53.118 12.1377C53.0909 11.768 53.077 11.3793 53.077 10.9717C53.077 9.48984 53.256 8.27053 53.6151 7.31445C53.9983 6.33447 54.5734 5.58153 55.3397 5.05566C56.106 4.5059 57.0643 4.12333 58.2137 3.9082C59.3871 3.69311 60.7764 3.58496 62.3807 3.58496ZM49.9999 0C49.9759 0.119514 49.9394 0.46637 49.8915 1.04004C49.8436 1.61348 49.8202 2.21083 49.8202 2.83203V12.0879L42.4559 11.9756V2.47363C42.4559 1.75682 42.5159 1.23108 42.6356 0.896484C42.7792 0.538089 43.0428 0.299251 43.4257 0.179688C43.8088 0.0601852 44.3719 1.2057e-05 45.1141 0H49.9999ZM30.8485 3.65723C33.315 3.65723 35.2428 3.89697 36.6317 4.375C38.0206 4.82916 38.9911 5.58208 39.5419 6.63379C40.1164 7.68545 40.392 9.10805 40.368 10.9004C40.3634 11.263 40.3481 11.6105 40.328 11.9434L32.7567 11.8281C32.7749 11.4331 32.788 10.9924 32.788 10.5059C32.788 9.38264 32.6802 8.60511 32.4647 8.1748C32.2731 7.7209 31.8421 7.49414 31.1718 7.49414C30.9563 7.49415 30.7407 7.5054 30.5253 7.5293C30.3338 7.5293 30.1303 7.54155 29.9149 7.56543C29.7233 7.56543 29.5191 7.57766 29.3036 7.60156V11.2227C29.3036 11.4177 29.3079 11.6022 29.3153 11.7764L24.3778 11.7012C24.1662 8.93877 23.302 6.35914 21.9364 4.11816C22.188 4.08421 22.5604 4.04958 23.0536 4.01562C23.772 3.94392 24.5982 3.88472 25.5321 3.83691C26.466 3.78911 27.4 3.7534 28.3339 3.72949C29.2917 3.68169 30.1301 3.65723 30.8485 3.65723Z" fill="#172021"/>
<path d="M10.9668 2.05714C16.568 2.05714 21.1849 6.2582 21.8486 11.6821L15.3154 10.9068C13.7347 10.7191 12.416 9.61158 11.957 8.08742L10.9668 4.80031L9.86328 8.46632C9.46455 9.79111 8.41004 10.8163 7.07422 11.1763L2.74219 12.3433L6.93652 13.4722C8.34631 13.852 9.43693 14.9705 9.78223 16.3892L10.9668 21.2573L12.0557 16.7876C12.4506 15.1649 13.8122 13.9581 15.4707 13.7612L21.9336 12.9937C21.9336 13.0053 21.9346 13.0172 21.9346 13.0288C21.9344 19.0881 17.0238 23.9995 10.9668 23.9995C4.91005 23.9993 0.000135498 19.0879 0 13.0288C0 6.96962 4.90996 2.05738 10.9668 2.05714Z" fill="#172021"/>
</svg>
